<svg id="visual" viewBox="0 0 540 960" width="540" height="960" xmlns="http://www.w3.org/2000/svg" xmlns:xlink="http://www.w3.org/1999/xlink" version="1.1"><rect x="0" y="0" width="540" height="960" fill="#ffffff"></rect><defs><linearGradient id="grad1_0" x1="0%" y1="0%" x2="100%" y2="100%"><stop offset="30%" stop-color="#6f19d2" stop-opacity="1"></stop><stop offset="70%" stop-color="#6f19d2" stop-opacity="1"></stop></linearGradient></defs><defs><linearGradient id="grad1_1" x1="0%" y1="0%" x2="100%" y2="100%"><stop offset="30%" stop-color="#6f19d2" stop-opacity="1"></stop><stop offset="70%" stop-color="#9b5bdf" stop-opacity="1"></stop></linearGradient></defs><defs><linearGradient id="grad1_2" x1="0%" y1="0%" x2="100%" y2="100%"><stop offset="30%" stop-color="#c092eb" stop-opacity="1"></stop><stop offset="70%" stop-color="#9b5bdf" stop-opacity="1"></stop></linearGradient></defs><defs><linearGradient id="grad1_3" x1="0%" y1="0%" x2="100%" y2="100%"><stop offset="30%" stop-color="#c092eb" stop-opacity="1"></stop><stop offset="70%" stop-color="#e1c8f5" stop-opacity="1"></stop></linearGradient></defs><defs><linearGradient id="grad1_4" x1="0%" y1="0%" x2="100%" y2="100%"><stop offset="30%" stop-color="#ffffff" stop-opacity="1"></stop><stop offset="70%" stop-color="#e1c8f5" stop-opacity="1"></stop></linearGradient></defs><defs><linearGradient id="grad2_0" x1="0%" y1="0%" x2="100%" y2="100%"><stop offset="30%" stop-color="#6f19d2" stop-opacity="1"></stop><stop offset="70%" stop-color="#6f19d2" stop-opacity="1"></stop></linearGradient></defs><defs><linearGradient id="grad2_1" x1="0%" y1="0%" x2="100%" y2="100%"><stop offset="30%" stop-color="#9b5bdf" stop-opacity="1"></stop><stop offset="70%" stop-color="#6f19d2" stop-opacity="1"></stop></linearGradient></defs><defs><linearGradient id="grad2_2" x1="0%" y1="0%" x2="100%" y2="100%"><stop offset="30%" stop-color="#9b5bdf" stop-opacity="1"></stop><stop offset="70%" stop-color="#c092eb" stop-opacity="1"></stop></linearGradient></defs><defs><linearGradient id="grad2_3" x1="0%" y1="0%" x2="100%" y2="100%"><stop offset="30%" stop-color="#e1c8f5" stop-opacity="1"></stop><stop offset="70%" stop-color="#c092eb" stop-opacity="1"></stop></linearGradient></defs><defs><linearGradient id="grad2_4" x1="0%" y1="0%" x2="100%" y2="100%"><stop offset="30%" stop-color="#e1c8f5" stop-opacity="1"></stop><stop offset="70%" stop-color="#ffffff" stop-opacity="1"></stop></linearGradient></defs><g transform="translate(540, 0)"><path d="M0 486C-45 437.3 -90 388.7 -154.6 373.2C-219.2 357.8 -303.5 375.7 -343.7 343.7C-383.8 311.6 -380 229.8 -396.3 164.2C-412.7 98.6 -449.4 49.3 -486 0L0 0Z" fill="#f0e3fa"></path><path d="M0 388.8C-36 349.9 -72 310.9 -123.7 298.6C-175.4 286.3 -242.8 300.5 -274.9 274.9C-307.1 249.3 -304 183.8 -317.1 131.3C-330.2 78.9 -359.5 39.4 -388.8 0L0 0Z" fill="#d1adf0"></path><path d="M0 291.6C-27 262.4 -54 233.2 -92.8 223.9C-131.5 214.7 -182.1 225.4 -206.2 206.2C-230.3 187 -228 137.9 -237.8 98.5C-247.6 59.2 -269.6 29.6 -291.6 0L0 0Z" fill="#ae77e5"></path><path d="M0 194.4C-18 174.9 -36 155.5 -61.8 149.3C-87.7 143.1 -121.4 150.3 -137.5 137.5C-153.5 124.7 -152 91.9 -158.5 65.7C-165.1 39.4 -179.7 19.7 -194.4 0L0 0Z" fill="#863ed8"></path><path d="M0 97.2C-9 87.5 -18 77.7 -30.9 74.6C-43.8 71.6 -60.7 75.1 -68.7 68.7C-76.8 62.3 -76 46 -79.3 32.8C-82.5 19.7 -89.9 9.9 -97.2 0L0 0Z" fill="#6f19d2"></path></g><g transform="translate(0, 960)"><path d="M0 -486C65.8 -470.4 131.6 -454.7 172.2 -415.7C212.8 -376.7 228.2 -314.4 277.2 -277.2C326.1 -240 408.6 -228 449 -186C489.4 -144 487.7 -72 486 0L0 0Z" fill="#f0e3fa"></path><path d="M0 -388.8C52.6 -376.3 105.3 -363.8 137.8 -332.6C170.3 -301.4 182.6 -251.5 221.7 -221.7C260.9 -192 326.9 -182.4 359.2 -148.8C391.5 -115.2 390.2 -57.6 388.8 0L0 0Z" fill="#d1adf0"></path><path d="M0 -291.6C39.5 -282.2 79 -272.8 103.3 -249.4C127.7 -226 136.9 -188.6 166.3 -166.3C195.7 -144 245.2 -136.8 269.4 -111.6C293.6 -86.4 292.6 -43.2 291.6 0L0 0Z" fill="#ae77e5"></path><path d="M0 -194.4C26.3 -188.1 52.6 -181.9 68.9 -166.3C85.1 -150.7 91.3 -125.8 110.9 -110.9C130.5 -96 163.4 -91.2 179.6 -74.4C195.8 -57.6 195.1 -28.8 194.4 0L0 0Z" fill="#863ed8"></path><path d="M0 -97.2C13.2 -94.1 26.3 -90.9 34.4 -83.1C42.6 -75.3 45.6 -62.9 55.4 -55.4C65.2 -48 81.7 -45.6 89.8 -37.2C97.9 -28.8 97.5 -14.4 97.2 0L0 0Z" fill="#6f19d2"></path></g></svg>