<svg id="visual" viewBox="0 0 1920 1080" width="1920" height="1080" xmlns="http://www.w3.org/2000/svg" xmlns:xlink="http://www.w3.org/1999/xlink" version="1.1"><rect x="0" y="0" width="1920" height="1080" fill="#ffffff"></rect><defs><linearGradient id="grad1_0" x1="43.8%" y1="0%" x2="100%" y2="100%"><stop offset="14.444444444444446%" stop-color="#6f19d2" stop-opacity="1"></stop><stop offset="85.55555555555554%" stop-color="#6f19d2" stop-opacity="1"></stop></linearGradient></defs><defs><linearGradient id="grad1_1" x1="43.8%" y1="0%" x2="100%" y2="100%"><stop offset="14.444444444444446%" stop-color="#6f19d2" stop-opacity="1"></stop><stop offset="85.55555555555554%" stop-color="#9b5bdf" stop-opacity="1"></stop></linearGradient></defs><defs><linearGradient id="grad1_2" x1="43.8%" y1="0%" x2="100%" y2="100%"><stop offset="14.444444444444446%" stop-color="#c092eb" stop-opacity="1"></stop><stop offset="85.55555555555554%" stop-color="#9b5bdf" stop-opacity="1"></stop></linearGradient></defs><defs><linearGradient id="grad1_3" x1="43.8%" y1="0%" x2="100%" y2="100%"><stop offset="14.444444444444446%" stop-color="#c092eb" stop-opacity="1"></stop><stop offset="85.55555555555554%" stop-color="#e1c8f5" stop-opacity="1"></stop></linearGradient></defs><defs><linearGradient id="grad1_4" x1="43.8%" y1="0%" x2="100%" y2="100%"><stop offset="14.444444444444446%" stop-color="#ffffff" stop-opacity="1"></stop><stop offset="85.55555555555554%" stop-color="#e1c8f5" stop-opacity="1"></stop></linearGradient></defs><defs><linearGradient id="grad2_0" x1="0%" y1="0%" x2="56.3%" y2="100%"><stop offset="14.444444444444446%" stop-color="#6f19d2" stop-opacity="1"></stop><stop offset="85.55555555555554%" stop-color="#6f19d2" stop-opacity="1"></stop></linearGradient></defs><defs><linearGradient id="grad2_1" x1="0%" y1="0%" x2="56.3%" y2="100%"><stop offset="14.444444444444446%" stop-color="#9b5bdf" stop-opacity="1"></stop><stop offset="85.55555555555554%" stop-color="#6f19d2" stop-opacity="1"></stop></linearGradient></defs><defs><linearGradient id="grad2_2" x1="0%" y1="0%" x2="56.3%" y2="100%"><stop offset="14.444444444444446%" stop-color="#9b5bdf" stop-opacity="1"></stop><stop offset="85.55555555555554%" stop-color="#c092eb" stop-opacity="1"></stop></linearGradient></defs><defs><linearGradient id="grad2_3" x1="0%" y1="0%" x2="56.3%" y2="100%"><stop offset="14.444444444444446%" stop-color="#e1c8f5" stop-opacity="1"></stop><stop offset="85.55555555555554%" stop-color="#c092eb" stop-opacity="1"></stop></linearGradient></defs><defs><linearGradient id="grad2_4" x1="0%" y1="0%" x2="56.3%" y2="100%"><stop offset="14.444444444444446%" stop-color="#e1c8f5" stop-opacity="1"></stop><stop offset="85.55555555555554%" stop-color="#ffffff" stop-opacity="1"></stop></linearGradient></defs><g transform="translate(1920, 0)"><path d="M0 972C-120.3 917.8 -240.5 863.6 -329.1 794.5C-417.7 725.4 -474.6 641.4 -576.3 576.3C-678 511.2 -824.6 464.9 -898 372C-971.4 279.1 -971.7 139.5 -972 0L0 0Z" fill="#f0e3fa"></path><path d="M0 777.6C-96.2 734.3 -192.4 690.9 -263.3 635.6C-334.1 580.4 -379.7 513.1 -461 461C-542.4 408.9 -659.7 371.9 -718.4 297.6C-777.1 223.3 -777.4 111.6 -777.6 0L0 0Z" fill="#d1adf0"></path><path d="M0 583.2C-72.2 550.7 -144.3 518.2 -197.5 476.7C-250.6 435.3 -284.7 384.9 -345.8 345.8C-406.8 306.7 -494.8 278.9 -538.8 223.2C-582.9 167.4 -583 83.7 -583.2 0L0 0Z" fill="#ae77e5"></path><path d="M0 388.8C-48.1 367.1 -96.2 345.5 -131.6 317.8C-167.1 290.2 -189.8 256.6 -230.5 230.5C-271.2 204.5 -329.8 185.9 -359.2 148.8C-388.6 111.6 -388.7 55.8 -388.8 0L0 0Z" fill="#863ed8"></path><path d="M0 194.4C-24.1 183.6 -48.1 172.7 -65.8 158.9C-83.5 145.1 -94.9 128.3 -115.3 115.3C-135.6 102.2 -164.9 93 -179.6 74.4C-194.3 55.8 -194.3 27.9 -194.4 0L0 0Z" fill="#6f19d2"></path></g><g transform="translate(0, 1080)"><path d="M0 -972C108.2 -923.2 216.4 -874.4 347.5 -838.9C478.6 -803.4 632.7 -781.1 687.3 -687.3C741.9 -593.5 697.1 -428 728 -301.6C758.9 -175.1 865.4 -87.5 972 0L0 0Z" fill="#f0e3fa"></path><path d="M0 -777.6C86.5 -738.6 173.1 -699.5 278 -671.1C382.9 -642.7 506.1 -624.9 549.8 -549.8C593.6 -474.8 557.7 -342.4 582.4 -241.2C607.1 -140.1 692.4 -70 777.6 0L0 0Z" fill="#d1adf0"></path><path d="M0 -583.2C64.9 -553.9 129.8 -524.6 208.5 -503.3C287.2 -482 379.6 -468.7 412.4 -412.4C445.2 -356.1 418.3 -256.8 436.8 -180.9C455.3 -105 519.3 -52.5 583.2 0L0 0Z" fill="#ae77e5"></path><path d="M0 -388.8C43.3 -369.3 86.5 -349.8 139 -335.6C191.4 -321.3 253.1 -312.5 274.9 -274.9C296.8 -237.4 278.9 -171.2 291.2 -120.6C303.6 -70 346.2 -35 388.8 0L0 0Z" fill="#863ed8"></path><path d="M0 -194.4C21.6 -184.6 43.3 -174.9 69.5 -167.8C95.7 -160.7 126.5 -156.2 137.5 -137.5C148.4 -118.7 139.4 -85.6 145.6 -60.3C151.8 -35 173.1 -17.5 194.4 0L0 0Z" fill="#6f19d2"></path></g></svg>